<svg width="1920" height="1080" viewBox="0 0 1920 1080" fill="none" xmlns="http://www.w3.org/2000/svg">
<mask id="mask0_180_1109" style="mask-type:alpha" maskUnits="userSpaceOnUse" x="0" y="0" width="1920" height="1080">
<rect width="1920" height="1080" fill="#D9D9D9"/>
</mask>
<g mask="url(#mask0_180_1109)">
<rect width="1920" height="1080" fill="#090909"/>
<g filter="url(#filter0_f_180_1109)">
<circle cx="851.5" cy="101.5" r="764.5" fill="#F40303" fill-opacity="0.15"/>
</g>
<g filter="url(#filter1_b_180_1109)">
<rect x="-125" y="-91" width="2170" height="1263" fill="#D9D9D9" fill-opacity="0.03"/>
</g>
<path d="M-186.919 250.071L-113.982 163.609L-75.5691 270.006L-37.1632 376.4L-148.506 356.467L-259.856 336.532L-186.919 250.071Z" stroke="#F40303" stroke-opacity="0.5" stroke-width="0.67358" stroke-miterlimit="10"/>
<path d="M-169.466 260.36L-95.2193 174.585L-58.0588 281.766L-20.8935 388.955L-132.299 367.543L-243.706 346.137L-169.466 260.36Z" stroke="#F40303" stroke-opacity="0.5" stroke-width="0.67358" stroke-miterlimit="10"/>
<path d="M-152.012 270.643L-76.4622 185.554L-40.5423 293.529L-4.62235 401.504L-116.092 378.618L-227.563 355.739L-152.012 270.643Z" stroke="#F40303" stroke-opacity="0.5" stroke-width="0.67358" stroke-miterlimit="10"/>
<path d="M-134.559 280.933L-57.7049 196.522L-23.0304 305.283L11.6424 414.051L-99.8848 389.694L-211.42 365.342L-134.559 280.933Z" stroke="#F40303" stroke-opacity="0.5" stroke-width="0.67358" stroke-miterlimit="10"/>
<path d="M-117.105 291.216L-38.9412 207.492L-5.5138 317.046L27.9136 426.599L-83.6778 400.77L-195.269 374.94L-117.105 291.216Z" stroke="#F40303" stroke-opacity="0.5" stroke-width="0.67358" stroke-miterlimit="10"/>
<path d="M-99.6527 301.506L-20.1774 218.462L11.9964 328.806L44.1832 439.154L-67.4706 411.845L-179.126 384.543L-99.6527 301.506Z" stroke="#F40303" stroke-opacity="0.5" stroke-width="0.67358" stroke-miterlimit="10"/>
<path d="M-82.1985 311.789L-1.42024 229.43L29.5147 340.562L60.4479 451.701L-51.2636 422.921L-162.977 394.147L-82.1985 311.789Z" stroke="#F40303" stroke-opacity="0.5" stroke-width="0.67358" stroke-miterlimit="10"/>
<path d="M-64.557 321.362L17.5243 239.688L47.2187 351.615L76.9065 463.54L-34.8709 433.293L-146.647 403.04L-64.557 321.362Z" stroke="#F40303" stroke-opacity="0.5" stroke-width="0.67358" stroke-miterlimit="10"/>
<path d="M-46.7453 330.291L36.6473 249.298L65.088 362.015L93.537 474.727L-18.3028 443.001L-130.143 411.275L-46.7453 330.291Z" stroke="#F40303" stroke-opacity="0.5" stroke-width="0.67358" stroke-miterlimit="10"/>
<path d="M-28.932 339.212L55.7636 258.905L82.9654 372.41L110.159 485.919L-1.73668 452.716L-113.634 419.518L-28.932 339.212Z" stroke="#F40303" stroke-opacity="0.5" stroke-width="0.67358" stroke-miterlimit="10"/>
<path d="M-11.1186 348.134L74.8882 268.507L100.835 382.809L126.79 497.106L14.8296 462.43L-97.1303 427.753L-11.1186 348.134Z" stroke="#F40303" stroke-opacity="0.5" stroke-width="0.67358" stroke-miterlimit="10"/>
<path d="M6.68834 357.054L94.0048 278.114L118.712 393.204L143.42 508.294L31.396 472.144L-80.6216 435.997L6.68834 357.054Z" stroke="#F40303" stroke-opacity="0.5" stroke-width="0.67358" stroke-miterlimit="10"/>
<path d="M24.5018 365.977L113.128 287.723L136.59 403.599L160.044 519.48L47.964 481.853L-64.1177 444.232L24.5018 365.977Z" stroke="#F40303" stroke-opacity="0.5" stroke-width="0.67358" stroke-miterlimit="10"/>
<path d="M42.3149 374.898L132.244 297.33L154.459 413.998L176.674 530.667L64.5301 491.567L-47.6158 452.473L42.3149 374.898Z" stroke="#F40303" stroke-opacity="0.5" stroke-width="0.67358" stroke-miterlimit="10"/>
<path d="M60.1267 383.827L151.367 306.939L172.337 424.393L193.305 541.854L81.0965 501.281L-31.1053 460.71L60.1267 383.827Z" stroke="#F40303" stroke-opacity="0.5" stroke-width="0.67358" stroke-miterlimit="10"/>
<path d="M77.9401 392.749L170.485 316.539L190.208 434.786L209.929 553.04L97.6628 510.996L-14.6032 468.951L77.9401 392.749Z" stroke="#F40303" stroke-opacity="0.5" stroke-width="0.67358" stroke-miterlimit="10"/>
<path d="M95.7533 401.671L189.608 326.148L208.083 445.188L226.559 564.227L114.229 520.71L1.90041 477.187L95.7533 401.671Z" stroke="#F40303" stroke-opacity="0.5" stroke-width="0.67358" stroke-miterlimit="10"/>
<path d="M113.567 410.592L208.724 335.755L225.955 455.58L243.19 575.414L130.797 530.418L18.4091 485.43L113.567 410.592Z" stroke="#F40303" stroke-opacity="0.5" stroke-width="0.67358" stroke-miterlimit="10"/>
<path d="M131.38 419.514L227.847 345.364L243.83 465.982L259.814 586.6L147.363 540.132L34.913 493.665L131.38 419.514Z" stroke="#F40303" stroke-opacity="0.5" stroke-width="0.67358" stroke-miterlimit="10"/>
<path d="M149.193 428.437L246.964 354.971L261.701 476.375L276.444 597.788L163.929 549.847L51.4215 501.909L149.193 428.437Z" stroke="#F40303" stroke-opacity="0.5" stroke-width="0.67358" stroke-miterlimit="10"/>
<path d="M167.007 437.359L266.088 364.574L279.579 486.77L293.074 608.975L180.497 559.555L67.9254 510.143L167.007 437.359Z" stroke="#F40303" stroke-opacity="0.5" stroke-width="0.67358" stroke-miterlimit="10"/>
<path d="M184.819 446.287L285.205 374.181L297.455 497.171L309.698 620.16L197.064 569.269L84.4275 518.385L184.819 446.287Z" stroke="#F40303" stroke-opacity="0.5" stroke-width="0.67358" stroke-miterlimit="10"/>
<path d="M202.632 455.209L304.328 383.789L315.326 507.564L326.329 631.348L213.63 578.984L100.938 526.622L202.632 455.209Z" stroke="#F40303" stroke-opacity="0.5" stroke-width="0.67358" stroke-miterlimit="10"/>
<path d="M220.439 464.129L323.444 393.396L333.202 517.966L342.959 642.535L230.196 588.698L117.44 534.863L220.439 464.129Z" stroke="#F40303" stroke-opacity="0.5" stroke-width="0.67358" stroke-miterlimit="10"/>
<path d="M238.259 473.053L342.561 403.004L351.073 528.359L359.583 653.721L246.763 598.413L133.944 543.098L238.259 473.053Z" stroke="#F40303" stroke-opacity="0.5" stroke-width="0.67358" stroke-miterlimit="10"/>
<path d="M256.066 481.972L361.685 412.606L368.949 538.76L376.214 664.908L263.331 608.12L150.452 551.341L256.066 481.972Z" stroke="#F40303" stroke-opacity="0.5" stroke-width="0.67358" stroke-miterlimit="10"/>
<path d="M273.879 490.895L380.802 422.213L386.82 549.154L392.844 676.096L279.897 617.835L166.956 559.577L273.879 490.895Z" stroke="#F40303" stroke-opacity="0.5" stroke-width="0.67358" stroke-miterlimit="10"/>
<path d="M291.692 499.817L399.924 431.822L404.697 559.549L409.468 687.281L296.463 627.55L183.465 567.82L291.692 499.817Z" stroke="#F40303" stroke-opacity="0.5" stroke-width="0.67358" stroke-miterlimit="10"/>
<path d="M309.504 508.745L419.041 441.429L422.573 569.95L426.098 698.468L313.038 637.259L199.969 576.055L309.504 508.745Z" stroke="#F40303" stroke-opacity="0.5" stroke-width="0.67358" stroke-miterlimit="10"/>
<path d="M327.317 517.667L438.166 451.031L440.444 580.343L442.729 709.656L329.604 646.974L216.471 584.296L327.317 517.667Z" stroke="#F40303" stroke-opacity="0.5" stroke-width="0.67358" stroke-miterlimit="10"/>
<path d="M345.131 526.589L457.282 460.638L458.322 590.737L459.353 720.841L346.17 656.688L232.981 592.533L345.131 526.589Z" stroke="#F40303" stroke-opacity="0.5" stroke-width="0.67358" stroke-miterlimit="10"/>
<path d="M362.944 535.511L476.405 470.247L476.191 601.137L475.983 732.028L362.736 666.402L249.483 600.774L362.944 535.511Z" stroke="#F40303" stroke-opacity="0.5" stroke-width="0.67358" stroke-miterlimit="10"/>
<path d="M380.757 544.433L495.521 479.855L494.068 611.532L492.614 743.216L379.303 676.117L265.987 609.01L380.757 544.433Z" stroke="#F40303" stroke-opacity="0.5" stroke-width="0.67358" stroke-miterlimit="10"/>
<path d="M398.571 553.355L514.644 489.463L511.944 621.933L509.238 754.402L395.871 685.825L282.496 617.253L398.571 553.355Z" stroke="#F40303" stroke-opacity="0.5" stroke-width="0.67358" stroke-miterlimit="10"/>
<path d="M416.384 562.277L533.762 499.064L529.815 632.327L525.868 765.589L412.437 695.54L299 625.488L416.384 562.277Z" stroke="#F40303" stroke-opacity="0.5" stroke-width="0.67358" stroke-miterlimit="10"/>
<path d="M434.196 571.205L552.885 508.672L547.691 642.728L542.498 776.776L429.003 705.254L315.508 633.731L434.196 571.205Z" stroke="#F40303" stroke-opacity="0.5" stroke-width="0.67358" stroke-miterlimit="10"/>
<path d="M452.009 580.127L572.002 518.28L565.562 653.121L559.122 787.962L445.57 714.968L332.012 641.966L452.009 580.127Z" stroke="#F40303" stroke-opacity="0.5" stroke-width="0.67358" stroke-miterlimit="10"/>
<path d="M469.816 589.047L591.125 527.888L583.44 663.515L575.753 799.149L462.138 724.676L348.514 650.208L469.816 589.047Z" stroke="#F40303" stroke-opacity="0.5" stroke-width="0.67358" stroke-miterlimit="10"/>
<path d="M487.629 597.969L610.243 537.489L601.309 673.915L592.383 810.337L478.704 734.391L365.024 658.444L487.629 597.969Z" stroke="#F40303" stroke-opacity="0.5" stroke-width="0.67358" stroke-miterlimit="10"/>
<path d="M505.443 606.891L629.366 547.098L619.186 684.31L609.007 821.522L495.27 744.105L381.526 666.686L505.443 606.891Z" stroke="#F40303" stroke-opacity="0.5" stroke-width="0.67358" stroke-miterlimit="10"/>
<path d="M523.256 615.813L648.482 556.705L637.062 694.712L625.637 832.71L511.836 753.82L398.037 674.923L523.256 615.813Z" stroke="#F40303" stroke-opacity="0.5" stroke-width="0.67358" stroke-miterlimit="10"/>
<path d="M541.07 624.735L667.599 566.312L654.933 705.104L642.268 843.897L528.405 763.527L414.539 683.164L541.07 624.735Z" stroke="#F40303" stroke-opacity="0.5" stroke-width="0.67358" stroke-miterlimit="10"/>
<path d="M558.881 633.664L686.721 575.921L672.811 715.499L658.892 855.083L544.971 773.242L431.043 691.4L558.881 633.664Z" stroke="#F40303" stroke-opacity="0.5" stroke-width="0.67358" stroke-miterlimit="10"/>
<path d="M576.695 642.586L705.84 585.522L690.68 725.899L675.522 866.27L561.537 782.957L447.551 699.643L576.695 642.586Z" stroke="#F40303" stroke-opacity="0.5" stroke-width="0.67358" stroke-miterlimit="10"/>
<path d="M594.508 651.507L724.963 595.13L708.558 736.294L692.153 877.457L578.103 792.671L464.055 707.878L594.508 651.507Z" stroke="#F40303" stroke-opacity="0.5" stroke-width="0.67358" stroke-miterlimit="10"/>
<path d="M612.321 660.429L744.079 604.737L726.427 746.693L708.777 888.643L594.671 802.378L480.557 716.119L612.321 660.429Z" stroke="#F40303" stroke-opacity="0.5" stroke-width="0.67358" stroke-miterlimit="10"/>
<path d="M630.135 669.351L763.202 614.346L744.304 757.088L725.407 899.83L611.237 812.093L497.068 724.356L630.135 669.351Z" stroke="#F40303" stroke-opacity="0.5" stroke-width="0.67358" stroke-miterlimit="10"/>
<path d="M652.62 674.532L786.445 615.812L770.381 761.071L754.316 906.33L636.556 819.791L518.789 733.251L652.62 674.532Z" stroke="#F40303" stroke-opacity="0.5" stroke-width="0.67358" stroke-miterlimit="10"/>
<path d="M675.106 679.713L809.693 617.286L796.463 765.055L783.234 912.825L661.877 827.482L540.52 742.14L675.106 679.713Z" stroke="#F40303" stroke-opacity="0.5" stroke-width="0.67358" stroke-miterlimit="10"/>
<path d="M697.585 684.892L832.936 618.751L822.539 769.038L812.149 919.326L687.195 835.18L562.241 751.034L697.585 684.892Z" stroke="#F40303" stroke-opacity="0.5" stroke-width="0.67358" stroke-miterlimit="10"/>
<path d="M720.071 690.072L856.184 620.225L848.622 773.022L841.06 925.818L712.515 842.871L583.963 759.928L720.071 690.072Z" stroke="#F40303" stroke-opacity="0.5" stroke-width="0.67358" stroke-miterlimit="10"/>
<path d="M742.557 695.254L879.427 621.691L874.698 777.005L869.975 932.32L737.834 850.569L605.693 768.818L742.557 695.254Z" stroke="#F40303" stroke-opacity="0.5" stroke-width="0.67358" stroke-miterlimit="10"/>
<path d="M765.043 700.435L902.668 623.163L900.781 780.989L898.886 938.813L763.155 858.261L627.415 777.713L765.043 700.435Z" stroke="#F40303" stroke-opacity="0.5" stroke-width="0.67358" stroke-miterlimit="10"/>
<path d="M787.528 705.616L925.918 624.631L926.856 784.972L927.802 945.315L788.473 865.958L649.138 786.601L787.528 705.616Z" stroke="#F40303" stroke-opacity="0.5" stroke-width="0.67358" stroke-miterlimit="10"/>
<path d="M810.014 710.796L949.159 626.103L952.939 788.956L956.712 951.808L813.794 873.65L670.867 795.497L810.014 710.796Z" stroke="#F40303" stroke-opacity="0.5" stroke-width="0.67358" stroke-miterlimit="10"/>
<path d="M832.5 715.977L972.402 627.568L979.015 792.938L985.628 958.308L839.112 881.347L692.589 804.39L832.5 715.977Z" stroke="#F40303" stroke-opacity="0.5" stroke-width="0.67358" stroke-miterlimit="10"/>
<path d="M854.985 721.158L995.65 629.042L1005.1 796.923L1014.54 964.802L864.431 889.045L714.318 813.28L854.985 721.158Z" stroke="#F40303" stroke-opacity="0.5" stroke-width="0.67358" stroke-miterlimit="10"/>
<path d="M877.471 726.339L1018.89 630.508L1031.17 800.906L1043.45 971.303L889.751 896.737L736.04 822.175L877.471 726.339Z" stroke="#F40303" stroke-opacity="0.5" stroke-width="0.67358" stroke-miterlimit="10"/>
<path d="M899.957 731.519L1042.14 631.981L1057.26 804.889L1072.37 977.795L915.07 904.434L757.764 831.062L899.957 731.519Z" stroke="#F40303" stroke-opacity="0.5" stroke-width="0.67358" stroke-miterlimit="10"/>
<path d="M922.442 736.7L1065.38 633.447L1083.33 808.872L1101.28 984.297L940.384 912.124L779.492 839.959L922.442 736.7Z" stroke="#F40303" stroke-opacity="0.5" stroke-width="0.67358" stroke-miterlimit="10"/>
<path d="M944.92 741.886L1088.63 634.921L1109.42 812.856L1130.2 990.792L965.703 919.821L801.214 848.853L944.92 741.886Z" stroke="#F40303" stroke-opacity="0.5" stroke-width="0.67358" stroke-miterlimit="10"/>
<path d="M967.406 747.067L1111.88 636.386L1135.49 816.839L1159.11 997.291L991.023 927.513L822.944 857.742L967.406 747.067Z" stroke="#F40303" stroke-opacity="0.5" stroke-width="0.67358" stroke-miterlimit="10"/>
<path d="M989.891 752.248L1135.12 637.858L1161.57 820.822L1188.02 1003.79L1016.34 935.211L844.666 866.637L989.891 752.248Z" stroke="#F40303" stroke-opacity="0.5" stroke-width="0.67358" stroke-miterlimit="10"/>
<path d="M1012.38 757.428L1158.37 639.326L1187.65 824.806L1216.93 1010.29L1041.66 942.902L866.389 875.525L1012.38 757.428Z" stroke="#F40303" stroke-opacity="0.5" stroke-width="0.67358" stroke-miterlimit="10"/>
<path d="M1034.86 762.609L1181.61 640.791L1213.73 828.788L1245.85 1016.78L1066.98 950.6L888.118 884.421L1034.86 762.609Z" stroke="#F40303" stroke-opacity="0.5" stroke-width="0.67358" stroke-miterlimit="10"/>
<path d="M1057.35 767.79L1204.85 642.263L1239.81 832.772L1274.76 1023.27L1092.3 958.291L909.841 893.308L1057.35 767.79Z" stroke="#F40303" stroke-opacity="0.5" stroke-width="0.67358" stroke-miterlimit="10"/>
<path d="M1079.83 772.971L1228.1 643.731L1265.88 836.755L1303.68 1029.77L1117.62 965.989L931.563 902.203L1079.83 772.971Z" stroke="#F40303" stroke-opacity="0.5" stroke-width="0.67358" stroke-miterlimit="10"/>
<path d="M1102.32 778.152L1251.34 645.203L1291.97 840.74L1332.59 1036.27L1142.94 973.687L953.291 911.099L1102.32 778.152Z" stroke="#F40303" stroke-opacity="0.5" stroke-width="0.67358" stroke-miterlimit="10"/>
<path d="M1124.8 783.331L1274.59 646.67L1318.04 844.722L1361.5 1042.77L1168.26 981.378L975.015 919.987L1124.8 783.331Z" stroke="#F40303" stroke-opacity="0.5" stroke-width="0.67358" stroke-miterlimit="10"/>
<path d="M1147.28 788.512L1297.83 648.142L1344.13 848.706L1390.41 1049.26L1193.58 989.076L996.743 928.883L1147.28 788.512Z" stroke="#F40303" stroke-opacity="0.5" stroke-width="0.67358" stroke-miterlimit="10"/>
<path d="M1169.77 793.693L1321.08 649.608L1370.2 852.689L1419.33 1055.76L1218.9 996.767L1018.47 937.771L1169.77 793.693Z" stroke="#F40303" stroke-opacity="0.5" stroke-width="0.67358" stroke-miterlimit="10"/>
<path d="M1192.26 798.874L1344.32 651.082L1396.28 856.674L1448.24 1062.26L1244.22 1004.47L1040.19 946.665L1192.26 798.874Z" stroke="#F40303" stroke-opacity="0.5" stroke-width="0.67358" stroke-miterlimit="10"/>
<path d="M1214.74 804.054L1367.57 652.547L1422.36 860.656L1477.16 1068.76L1269.54 1012.16L1061.92 955.561L1214.74 804.054Z" stroke="#F40303" stroke-opacity="0.5" stroke-width="0.67358" stroke-miterlimit="10"/>
<path d="M1237.31 808.929L1390.9 653.708L1448.53 864.327L1506.15 1074.95L1294.94 1019.54L1083.72 964.143L1237.31 808.929Z" stroke="#F40303" stroke-opacity="0.5" stroke-width="0.67358" stroke-miterlimit="10"/>
<path d="M1260.32 812.104L1414.67 653.175L1475.13 866.304L1535.59 1079.43L1320.79 1025.23L1105.98 971.026L1260.32 812.104Z" stroke="#F40303" stroke-opacity="0.5" stroke-width="0.67358" stroke-miterlimit="10"/>
<path d="M1283.34 815.272L1438.45 652.636L1501.74 868.282L1565.04 1083.93L1346.64 1030.92L1128.23 977.915L1283.34 815.272Z" stroke="#F40303" stroke-opacity="0.5" stroke-width="0.67358" stroke-miterlimit="10"/>
<path d="M1306.35 818.453L1462.22 652.102L1528.35 870.259L1594.48 1088.42L1372.48 1036.61L1150.48 984.796L1306.35 818.453Z" stroke="#F40303" stroke-opacity="0.5" stroke-width="0.67358" stroke-miterlimit="10"/>
<path d="M1329.37 821.622L1485.99 651.562L1554.96 872.237L1623.92 1092.91L1398.33 1042.3L1172.74 991.687L1329.37 821.622Z" stroke="#F40303" stroke-opacity="0.5" stroke-width="0.67358" stroke-miterlimit="10"/>
<path d="M1352.38 824.802L1509.77 651.023L1581.57 874.214L1653.36 1097.4L1424.18 1047.99L1194.99 998.575L1352.38 824.802Z" stroke="#F40303" stroke-opacity="0.5" stroke-width="0.67358" stroke-miterlimit="10"/>
<path d="M1375.39 827.977L1533.54 650.49L1608.17 876.191L1682.81 1101.89L1450.03 1053.67L1217.25 1005.46L1375.39 827.977Z" stroke="#F40303" stroke-opacity="0.5" stroke-width="0.67358" stroke-miterlimit="10"/>
<path d="M1398.41 831.145L1557.32 649.95L1634.78 878.169L1712.25 1106.38L1475.88 1059.36L1239.5 1012.35L1398.41 831.145Z" stroke="#F40303" stroke-opacity="0.5" stroke-width="0.67358" stroke-miterlimit="10"/>
<path d="M1421.42 834.32L1581.09 649.417L1661.39 880.146L1741.69 1110.88L1501.73 1065.05L1261.76 1019.23L1421.42 834.32Z" stroke="#F40303" stroke-opacity="0.5" stroke-width="0.67358" stroke-miterlimit="10"/>
<path d="M1444.44 837.494L1604.86 648.876L1688 882.124L1771.13 1115.36L1527.58 1070.74L1284.01 1026.12L1444.44 837.494Z" stroke="#F40303" stroke-opacity="0.5" stroke-width="0.67358" stroke-miterlimit="10"/>
<path d="M1467.45 840.67L1628.64 648.344L1714.61 884.094L1800.58 1119.85L1553.42 1076.43L1306.27 1033L1467.45 840.67Z" stroke="#F40303" stroke-opacity="0.5" stroke-width="0.67358" stroke-miterlimit="10"/>
<path d="M1490.47 843.844L1652.41 647.804L1741.22 886.072L1830.02 1124.35L1579.27 1082.12L1328.52 1039.89L1490.47 843.844Z" stroke="#F40303" stroke-opacity="0.5" stroke-width="0.67358" stroke-miterlimit="10"/>
<path d="M1513.48 847.019L1676.19 647.272L1767.82 888.049L1859.46 1128.83L1605.12 1087.8L1350.78 1046.77L1513.48 847.019Z" stroke="#F40303" stroke-opacity="0.5" stroke-width="0.67358" stroke-miterlimit="10"/>
<path d="M1536.5 850.194L1699.96 646.732L1794.44 890.027L1888.91 1133.33L1630.97 1093.49L1373.03 1053.66L1536.5 850.194Z" stroke="#F40303" stroke-opacity="0.5" stroke-width="0.67358" stroke-miterlimit="10"/>
<path d="M1559.51 853.367L1723.73 646.191L1821.04 892.004L1918.35 1137.82L1656.82 1099.18L1395.28 1060.54L1559.51 853.367Z" stroke="#F40303" stroke-opacity="0.5" stroke-width="0.67358" stroke-miterlimit="10"/>
<path d="M1582.52 856.542L1747.51 645.659L1847.65 893.982L1947.79 1142.31L1682.66 1104.87L1417.54 1067.43L1582.52 856.542Z" stroke="#F40303" stroke-opacity="0.5" stroke-width="0.67358" stroke-miterlimit="10"/>
<path d="M1605.54 859.717L1771.28 645.119L1874.26 895.959L1977.23 1146.8L1708.51 1110.56L1439.79 1074.32L1605.54 859.717Z" stroke="#F40303" stroke-opacity="0.5" stroke-width="0.67358" stroke-miterlimit="10"/>
<path d="M1628.55 862.892L1795.06 644.587L1900.87 897.937L2006.68 1151.29L1734.36 1116.25L1462.05 1081.21L1628.55 862.892Z" stroke="#F40303" stroke-opacity="0.5" stroke-width="0.67358" stroke-miterlimit="10"/>
<path d="M1651.57 866.067L1818.83 644.046L1927.48 899.914L2036.12 1155.78L1760.21 1121.93L1484.3 1088.09L1651.57 866.067Z" stroke="#F40303" stroke-opacity="0.5" stroke-width="0.67358" stroke-miterlimit="10"/>
<path d="M1674.58 869.242L1842.61 643.506L1954.09 901.892L2065.57 1160.27L1786.06 1127.63L1506.55 1094.98L1674.58 869.242Z" stroke="#F40303" stroke-opacity="0.5" stroke-width="0.67358" stroke-miterlimit="10"/>
<path d="M1697.6 872.416L1866.38 642.974L1980.69 903.869L2095 1164.76L1811.91 1133.31L1528.81 1101.87L1697.6 872.416Z" stroke="#F40303" stroke-opacity="0.5" stroke-width="0.67358" stroke-miterlimit="10"/>
<path d="M1720.61 875.591L1890.16 642.433L2007.3 905.845L2124.45 1169.25L1837.76 1139L1551.06 1108.75L1720.61 875.591Z" stroke="#F40303" stroke-opacity="0.5" stroke-width="0.67358" stroke-miterlimit="10"/>
<path d="M1743.63 878.766L1913.93 641.901L2033.91 907.824L2153.89 1173.75L1863.61 1144.69L1573.32 1115.64L1743.63 878.766Z" stroke="#F40303" stroke-opacity="0.5" stroke-width="0.67358" stroke-miterlimit="10"/>
<path d="M1766.64 881.939L1937.7 641.36L2060.52 909.8L2183.34 1178.23L1889.45 1150.38L1595.57 1122.52L1766.64 881.939Z" stroke="#F40303" stroke-opacity="0.5" stroke-width="0.67358" stroke-miterlimit="10"/>
<path d="M1915.3 1156.07L1617.83 1129.41L1789.65 885.114L1961.48 640.827L2087.13 911.778L2212.77 1182.73L1915.3 1156.07Z" stroke="#F40303" stroke-opacity="0.5" stroke-width="0.67358" stroke-miterlimit="10"/>
<rect x="-61" y="-98" width="2000" height="1395" fill="url(#paint0_radial_180_1109)" fill-opacity="0.5" style="mix-blend-mode:multiply"/>
</g>
<defs>
<filter id="filter0_f_180_1109" x="-413" y="-1163" width="2529" height="2529" filterUnits="userSpaceOnUse" color-interpolation-filters="sRGB">
<feFlood flood-opacity="0" result="BackgroundImageFix"/>
<feBlend mode="normal" in="SourceGraphic" in2="BackgroundImageFix" result="shape"/>
<feGaussianBlur stdDeviation="250" result="effect1_foregroundBlur_180_1109"/>
</filter>
<filter id="filter1_b_180_1109" x="-135" y="-101" width="2190" height="1283" filterUnits="userSpaceOnUse" color-interpolation-filters="sRGB">
<feFlood flood-opacity="0" result="BackgroundImageFix"/>
<feGaussianBlur in="BackgroundImageFix" stdDeviation="5"/>
<feComposite in2="SourceAlpha" operator="in" result="effect1_backgroundBlur_180_1109"/>
<feBlend mode="normal" in="SourceGraphic" in2="effect1_backgroundBlur_180_1109" result="shape"/>
</filter>
<radialGradient id="paint0_radial_180_1109" cx="0" cy="0" r="1" gradientUnits="userSpaceOnUse" gradientTransform="translate(529 450.5) rotate(39.1342) scale(1895.78 2717.96)">
<stop offset="0.359046"/>
<stop offset="1" stop-color="#D9D9D9" stop-opacity="0"/>
</radialGradient>
</defs>
</svg>
