<svg width="130" height="58" viewBox="0 0 130 58" fill="none" xmlns="http://www.w3.org/2000/svg">
<path d="M99.7301 24.8442V33.6084L90.7947 42.5454L90.7917 29.2577V29.1919L90.7947 15.9058L99.7301 24.8442Z" fill="white" stroke="white" stroke-width="0.152925" stroke-miterlimit="10"/>
<path d="M32.6464 29.2238L51.6519 48.2294H39.0111L20.0056 29.2238L26.3244 22.9034L39.0111 10.2183H51.6519L32.6464 29.2238Z" fill="#F40303" stroke="#F40303" stroke-width="0.152925" stroke-miterlimit="10"/>
<path d="M23.1161 38.7542L13.6408 48.2295H1L16.7957 32.4338L23.1161 38.7542Z" fill="white" stroke="white" stroke-width="0.152925" stroke-miterlimit="10"/>
<path d="M23.1161 19.695L16.7957 26.0155L1 10.2183H13.6408L23.1161 19.695Z" fill="white" stroke="white" stroke-width="0.152925" stroke-miterlimit="10"/>
<path d="M123.247 29.2238L104.241 48.2294H91.6006L110.606 29.2238L91.6006 10.2183H104.241L116.928 22.9034L123.247 29.2238Z" fill="#F40303" stroke="#F40303" stroke-width="0.152925" stroke-miterlimit="10"/>
<path d="M129.544 48.2297H116.904L113.781 45.1085L120.103 38.7881L129.544 48.2297Z" fill="white" stroke="white" stroke-width="0.152925" stroke-miterlimit="10"/>
<path d="M88.1965 1L64.8112 57.4493H55.1555L78.5393 1H88.1965Z" fill="#F40303" stroke="#F40303" stroke-width="0.152925" stroke-miterlimit="10"/>
</svg>
