<svg width="373" height="58" viewBox="0 0 373 58" fill="none" xmlns="http://www.w3.org/2000/svg">
<path d="M99.7301 24.8442V33.6084L90.7947 42.5454L90.7917 29.2577V29.1919L90.7947 15.9058L99.7301 24.8442Z" fill="white" stroke="white" stroke-width="0.152925" stroke-miterlimit="10"/>
<path d="M32.6464 29.2238L51.6519 48.2294H39.0111L20.0056 29.2238L26.3244 22.9034L39.0111 10.2183H51.6519L32.6464 29.2238Z" fill="#F40303" stroke="#F40303" stroke-width="0.152925" stroke-miterlimit="10"/>
<path d="M23.1161 38.7542L13.6408 48.2295H1L16.7957 32.4338L23.1161 38.7542Z" fill="white" stroke="white" stroke-width="0.152925" stroke-miterlimit="10"/>
<path d="M23.1161 19.695L16.7957 26.0155L1 10.2183H13.6408L23.1161 19.695Z" fill="white" stroke="white" stroke-width="0.152925" stroke-miterlimit="10"/>
<path d="M123.247 29.2238L104.241 48.2294H91.6006L110.606 29.2238L91.6006 10.2183H104.241L116.928 22.9034L123.247 29.2238Z" fill="#F40303" stroke="#F40303" stroke-width="0.152925" stroke-miterlimit="10"/>
<path d="M129.544 48.2297H116.904L113.781 45.1085L120.103 38.7881L129.544 48.2297Z" fill="white" stroke="white" stroke-width="0.152925" stroke-miterlimit="10"/>
<path d="M88.1965 1L64.8112 57.4493H55.1555L78.5393 1H88.1965Z" fill="#F40303" stroke="#F40303" stroke-width="0.152925" stroke-miterlimit="10"/>
<path d="M172.228 21.9026L170.361 24.132C168.963 22.9723 167.477 22.4427 165.903 22.5433C165.383 22.5876 164.874 22.7192 164.399 22.9326C164 23.1118 163.646 23.3777 163.363 23.711C162.962 24.2071 162.767 24.8384 162.818 25.4745C162.875 25.7608 163.005 26.0278 163.194 26.2503C163.374 26.4763 163.583 26.6775 163.816 26.8487C164.112 27.0438 164.429 27.2046 164.761 27.328C165.177 27.4921 165.519 27.6113 165.786 27.6907L166.967 28.0402C167.812 28.2812 168.458 28.4771 168.897 28.6227C169.463 28.8251 170.013 29.0675 170.544 29.3482C171.095 29.6061 171.589 29.9726 171.995 30.4259C172.345 30.879 172.609 31.3923 172.774 31.9405C172.988 32.6502 173.058 33.3956 172.98 34.1329V34.1593C172.865 35.0595 172.507 35.9112 171.942 36.6218C171.207 37.4973 170.231 38.1373 169.136 38.4621C167.959 38.8123 166.72 38.9026 165.505 38.7268C163.26 38.4497 161.126 37.4992 159.103 35.8751L160.917 33.6192C162.505 34.8796 164.148 35.6139 165.844 35.8222C166.649 35.95 167.472 35.8966 168.254 35.666C168.801 35.5256 169.291 35.2172 169.654 34.7842C169.879 34.5092 170.023 34.1775 170.07 33.8257C170.09 33.4989 170.022 33.1727 169.874 32.8805C169.742 32.617 169.563 32.38 169.345 32.1814C169.066 31.9499 168.751 31.7656 168.413 31.636C167.989 31.4533 167.64 31.3156 167.354 31.2203C167.068 31.1249 166.668 31.0005 166.122 30.8443C165.577 30.6881 165.169 30.5795 164.891 30.4815C164.613 30.3836 164.232 30.2618 163.739 30.0817C163.346 29.9439 162.964 29.7748 162.598 29.576C162.333 29.4197 162.013 29.2132 161.65 28.9537C161.325 28.731 161.04 28.4543 160.808 28.1355C160.588 27.8103 160.402 27.4634 160.252 27.1002C160.074 26.6767 159.952 26.2316 159.889 25.7763V25.6731C159.826 24.9806 159.901 24.2824 160.111 23.6192C160.32 22.956 160.658 22.341 161.107 21.8099C161.66 21.158 162.35 20.6363 163.128 20.2821C163.929 19.916 164.79 19.6963 165.67 19.6334C166.39 19.5821 167.113 19.6257 167.822 19.7631C169.438 20.0866 170.945 20.8155 172.202 21.8814L172.228 21.9026Z" fill="white"/>
<path d="M189.105 20.2373H186.227V38.3829H189.105V20.2373Z" fill="white"/>
<path d="M215.446 21.9026L213.592 24.132C212.194 22.9723 210.708 22.4427 209.134 22.5433C208.614 22.5876 208.105 22.7192 207.63 22.9326C207.231 23.1118 206.877 23.3777 206.594 23.711C206.193 24.2071 205.998 24.8384 206.049 25.4745C206.106 25.7608 206.236 26.0278 206.425 26.2503C206.605 26.4763 206.814 26.6775 207.047 26.8487C207.343 27.0438 207.66 27.2046 207.992 27.328C208.408 27.4921 208.75 27.6113 209.017 27.6907L210.198 28.0402C211.043 28.2812 211.689 28.4771 212.128 28.6227C212.694 28.8251 213.244 29.0675 213.775 29.3482C214.327 29.6061 214.82 29.9726 215.226 30.4259C215.576 30.879 215.84 31.3923 216.005 31.9405C216.219 32.6502 216.289 33.3956 216.211 34.1329V34.1593C216.096 35.0595 215.738 35.9112 215.173 36.6218C214.441 37.496 213.467 38.1359 212.374 38.4621C211.198 38.8123 209.959 38.9026 208.744 38.7268C206.499 38.4497 204.365 37.4992 202.342 35.8751L204.156 33.6192C205.744 34.8796 207.387 35.6139 209.083 35.8222C209.888 35.95 210.711 35.8966 211.493 35.666C212.04 35.5256 212.53 35.2172 212.893 34.7842C213.118 34.5092 213.262 34.1775 213.309 33.8257C213.328 33.4989 213.261 33.1727 213.113 32.8805C212.981 32.617 212.801 32.38 212.584 32.1814C212.305 31.9499 211.99 31.7656 211.652 31.636C211.228 31.4533 210.878 31.3156 210.592 31.2203C210.307 31.1249 209.907 31.0005 209.361 30.8443C208.816 30.6881 208.408 30.5795 208.13 30.4815C207.852 30.3836 207.471 30.2618 206.978 30.0817C206.585 29.9439 206.203 29.7748 205.837 29.576C205.572 29.4197 205.252 29.2132 204.889 28.9537C204.564 28.731 204.279 28.4543 204.047 28.1355C203.827 27.8103 203.641 27.4634 203.491 27.1002C203.313 26.6767 203.191 26.2316 203.128 25.7763V25.6731C203.065 24.9806 203.14 24.2824 203.35 23.6192C203.559 22.956 203.897 22.341 204.346 21.8099C204.899 21.158 205.589 20.6363 206.367 20.2821C207.168 19.916 208.029 19.6963 208.908 19.6334C209.629 19.5821 210.352 19.6257 211.061 19.7631C212.677 20.0866 214.184 20.8155 215.441 21.8814L215.446 21.9026Z" fill="white"/>
<path d="M244.246 20.2373H229.445V23.1155H244.246V20.2373Z" fill="white"/>
<path d="M238.286 25.9937H235.408V38.3855H238.286V25.9937Z" fill="white"/>
<path d="M271.469 20.2373H257.47V23.1155H271.469V20.2373Z" fill="white"/>
<path d="M271.469 35.5069V38.3851H257.47V27.8865H271.469V30.7382H260.348V35.5069H271.469Z" fill="white"/>
<path d="M289.41 20.2373L294.076 30.8922L298.741 20.2373H303.436V38.3855H300.558V23.2452L294.076 38.0731L287.57 23.1923H284.692V20.2373H289.41Z" fill="white"/>
<path d="M287.57 27.9634H284.692V38.3852H287.57V27.9634Z" fill="white"/>
<path d="M332.109 38.3829L330.256 34.0298H321.65L319.81 38.3829H316.659L320.962 28.2735H324.139L322.945 31.0722H329.011C326.109 24.2638 324.571 20.6521 324.396 20.2373H327.56L335.284 38.3829H332.109Z" fill="white"/>
<path d="M361.611 21.9027L359.758 24.1322C358.36 22.9724 356.874 22.4429 355.299 22.5435C354.78 22.5874 354.272 22.719 353.798 22.9327C353.398 23.1109 353.043 23.377 352.76 23.7112C352.358 24.2072 352.163 24.8386 352.214 25.4746C352.272 25.7609 352.401 26.0279 352.59 26.2504C352.771 26.4758 352.98 26.6769 353.212 26.8489C353.509 27.0444 353.827 27.2052 354.16 27.3281C354.573 27.4923 354.915 27.6114 355.182 27.6909L356.363 28.0404C357.208 28.2813 357.854 28.4773 358.294 28.6229C358.859 28.8248 359.41 29.0672 359.941 29.3484C360.492 29.6062 360.985 29.9728 361.392 30.4261C361.741 30.8791 362.005 31.3924 362.17 31.9406C362.384 32.6503 362.455 33.3958 362.377 34.133V34.1595C362.262 35.0597 361.903 35.9113 361.339 36.622C360.606 37.4962 359.633 38.136 358.54 38.4622C357.364 38.8126 356.126 38.903 354.912 38.727C352.663 38.4499 350.528 37.4993 348.507 35.8753L350.324 33.6194C351.912 34.8797 353.554 35.6141 355.249 35.8223C356.053 35.9503 356.877 35.8969 357.658 35.6661C358.206 35.5257 358.696 35.2174 359.059 34.7844C359.28 34.5056 359.419 34.1711 359.461 33.8179C359.482 33.491 359.414 33.1646 359.265 32.8727C359.133 32.6092 358.954 32.3722 358.736 32.1736C358.457 31.9421 358.142 31.7578 357.804 31.6282C357.38 31.4455 357.031 31.3078 356.745 31.2125C356.459 31.1171 356.059 30.9927 355.513 30.8365C354.968 30.6803 354.56 30.5717 354.282 30.4737C354.004 30.3758 353.623 30.254 353.13 30.0739C352.737 29.9356 352.356 29.7665 351.989 29.5682C351.724 29.412 351.404 29.2054 351.041 28.9459C350.716 28.7232 350.431 28.4465 350.199 28.1278C349.979 27.8025 349.793 27.4556 349.643 27.0925C349.465 26.6689 349.343 26.2238 349.28 25.7685V25.6653C349.218 24.9728 349.294 24.2749 349.503 23.6118C349.712 22.9487 350.05 22.3336 350.498 21.8021C351.051 21.1502 351.741 20.6285 352.519 20.2743C353.321 19.9087 354.182 19.689 355.061 19.6256C355.781 19.5742 356.505 19.6178 357.213 19.7553C358.829 20.0788 360.336 20.8077 361.593 21.8736L361.611 21.9027Z" fill="white"/>
<path d="M372.007 10.1758H149.491V48.2542H372.007V10.1758Z" stroke="white" stroke-width="0.794348" stroke-miterlimit="10" stroke-linecap="square"/>
</svg>
