<svg width="1920" height="1080" viewBox="0 0 1920 1080" fill="none" xmlns="http://www.w3.org/2000/svg">
<mask id="mask0_180_1387" style="mask-type:alpha" maskUnits="userSpaceOnUse" x="0" y="0" width="1920" height="1080">
<rect width="1920" height="1080" fill="#D9D9D9"/>
</mask>
<g mask="url(#mask0_180_1387)">
<rect width="1920" height="1080" fill="#D9D9D9"/>
<g filter="url(#filter0_f_180_1387)">
<circle cx="550.5" cy="673.5" r="764.5" fill="black" fill-opacity="0.2"/>
</g>
<path d="M1924.55 -138.913L2165.32 -159.785L2049.13 24.0528L1932.94 207.894L1808.36 44.9287L1683.79 -118.042L1924.55 -138.913Z" stroke="black" stroke-width="0.626931" stroke-miterlimit="10"/>
<path d="M2144.33 -150.965L2032.1 31.6833L1914.72 212.112L1789.11 52.5287L1668.77 -109.847L1906.6 -132.917L2144.33 -150.965Z" stroke="black" stroke-width="0.626931" stroke-miterlimit="10"/>
<path d="M2123.34 -142.146L2015.07 39.3141L1896.5 216.326L1769.86 60.1338L1653.75 -101.654L1888.66 -126.917L2123.34 -142.146Z" stroke="black" stroke-width="0.626931" stroke-miterlimit="10"/>
<path d="M2102.35 -133.322L1998.05 46.9431L1878.28 220.543L1750.61 67.7336L1638.73 -93.459L1870.71 -120.916L2102.35 -133.322Z" stroke="black" stroke-width="0.626931" stroke-miterlimit="10"/>
<path d="M2081.37 -124.501L1981.02 54.5706L1860.05 224.758L1731.36 75.3354L1623.72 -85.2638L1852.76 -114.917L2081.37 -124.501Z" stroke="black" stroke-width="0.626931" stroke-miterlimit="10"/>
<path d="M2060.38 -115.683L1963.99 62.1999L1841.83 228.975L1712.11 82.9391L1608.7 -77.0715L1834.81 -108.917L2060.38 -115.683Z" stroke="black" stroke-width="0.626931" stroke-miterlimit="10"/>
<path d="M2039.39 -106.859L1946.96 69.8294L1823.61 233.187L1692.86 90.538L1593.68 -68.8779L1816.86 -102.917L2039.39 -106.859Z" stroke="black" stroke-width="0.626931" stroke-miterlimit="10"/>
<path d="M2018.4 -98.0392L1929.93 77.4603L1805.39 237.405L1673.61 98.1432L1578.67 -60.6841L1798.91 -96.922L2018.4 -98.0392Z" stroke="black" stroke-width="0.626931" stroke-miterlimit="10"/>
<path d="M1997.41 -89.2164L1912.9 85.0896L1787.17 241.617L1654.36 105.742L1563.64 -52.4906L1780.96 -90.922L1997.41 -89.2164Z" stroke="black" stroke-width="0.626931" stroke-miterlimit="10"/>
<path d="M1976.43 -80.3955L1895.88 92.717L1768.95 245.836L1635.11 113.349L1548.63 -44.2954L1763.01 -84.9191L1976.43 -80.3955Z" stroke="black" stroke-width="0.626931" stroke-miterlimit="10"/>
<path d="M1955.44 -71.577L1878.85 100.347L1750.73 250.048L1615.86 120.948L1533.61 -36.1014L1745.06 -78.9235L1955.44 -71.577Z" stroke="black" stroke-width="0.626931" stroke-miterlimit="10"/>
<path d="M1934.45 -62.7523L1861.82 107.978L1732.5 254.268L1596.61 128.554L1518.59 -27.9072L1727.11 -72.9215L1934.45 -62.7523Z" stroke="black" stroke-width="0.626931" stroke-miterlimit="10"/>
<path d="M1913.65 -53.0764L1844.99 116.458L1714.48 259.336L1577.55 137.004L1503.77 -18.8631L1709.36 -66.071L1913.65 -53.0764Z" stroke="black" stroke-width="0.626931" stroke-miterlimit="10"/>
<path d="M1892.97 -42.9L1828.26 125.446L1696.56 264.907L1558.61 145.966L1489.05 -9.31123L1691.71 -58.7175L1892.97 -42.9Z" stroke="black" stroke-width="0.626931" stroke-miterlimit="10"/>
<path d="M1872.28 -32.7242L1811.53 134.428L1678.63 270.477L1539.65 154.923L1474.33 0.23403L1674.06 -51.3596L1872.28 -32.7242Z" stroke="black" stroke-width="0.626931" stroke-miterlimit="10"/>
<path d="M1851.59 -22.5488L1794.8 143.415L1660.71 276.051L1520.7 163.879L1459.61 9.78504L1656.41 -44.007L1851.59 -22.5488Z" stroke="black" stroke-width="0.626931" stroke-miterlimit="10"/>
<path d="M1830.9 -12.3729L1778.08 152.397L1642.79 281.621L1501.75 172.836L1444.9 19.3303L1638.76 -36.654L1830.9 -12.3729Z" stroke="black" stroke-width="0.626931" stroke-miterlimit="10"/>
<path d="M1810.22 -2.1961L1761.35 161.386L1624.87 287.191L1482.8 181.794L1430.17 28.8827L1621.11 -29.2965L1810.22 -2.1961Z" stroke="black" stroke-width="0.626931" stroke-miterlimit="10"/>
<path d="M1789.52 7.98121L1744.62 170.368L1606.95 292.761L1463.85 190.75L1415.46 38.433L1603.46 -21.9432L1789.52 7.98121Z" stroke="black" stroke-width="0.626931" stroke-miterlimit="10"/>
<path d="M1768.83 18.1556L1727.89 179.349L1589.03 298.329L1444.9 199.706L1400.74 47.9781L1585.81 -14.5917L1768.83 18.1556Z" stroke="black" stroke-width="0.626931" stroke-miterlimit="10"/>
<path d="M1748.15 28.3315L1711.16 188.336L1571.1 303.904L1425.95 208.661L1386.02 57.5283L1568.16 -7.23857L1748.15 28.3315Z" stroke="black" stroke-width="0.626931" stroke-miterlimit="10"/>
<path d="M1727.46 38.5073L1694.44 197.317L1553.18 309.474L1407 217.618L1371.3 67.0749L1550.51 0.119276L1727.46 38.5073Z" stroke="black" stroke-width="0.626931" stroke-miterlimit="10"/>
<path d="M1707.57 48.5074L1678.5 206.129L1536.06 314.868L1388.84 226.405L1357.38 76.4493L1533.65 7.29662L1707.57 48.5074Z" stroke="black" stroke-width="0.626931" stroke-miterlimit="10"/>
<path d="M1688.82 58.2536L1663.72 214.68L1520.09 320.006L1371.85 234.929L1344.61 85.5684L1517.96 14.2173L1688.82 58.2536Z" stroke="black" stroke-width="0.626931" stroke-miterlimit="10"/>
<path d="M1670.1 67.9959L1648.95 223.235L1504.12 325.144L1354.85 243.454L1331.85 94.6814L1502.26 21.1429L1670.1 67.9959Z" stroke="black" stroke-width="0.626931" stroke-miterlimit="10"/>
<path d="M1651.36 77.7397L1634.18 231.784L1488.15 330.286L1337.85 251.978L1319.08 103.801L1486.57 28.0626L1651.36 77.7397Z" stroke="black" stroke-width="0.626931" stroke-miterlimit="10"/>
<path d="M1632.63 87.4848L1619.4 240.341L1472.19 335.424L1320.86 260.505L1306.32 112.92L1470.87 34.985L1632.63 87.4848Z" stroke="black" stroke-width="0.626931" stroke-miterlimit="10"/>
<path d="M1613.9 97.2319L1604.63 248.89L1456.22 340.56L1303.86 269.026L1293.56 122.032L1455.18 41.9079L1613.9 97.2319Z" stroke="black" stroke-width="0.626931" stroke-miterlimit="10"/>
<path d="M1595.16 106.973L1589.86 257.441L1440.25 345.7L1286.87 277.553L1280.8 131.152L1439.49 48.8308L1595.16 106.973Z" stroke="black" stroke-width="0.626931" stroke-miterlimit="10"/>
<path d="M1576.43 116.721L1575.08 265.996L1424.28 350.837L1269.87 286.077L1268.04 140.265L1423.79 55.7504L1576.43 116.721Z" stroke="black" stroke-width="0.626931" stroke-miterlimit="10"/>
<path d="M1557.69 126.465L1560.31 274.546L1408.32 355.98L1252.88 294.601L1255.27 149.384L1408.1 62.6714L1557.69 126.465Z" stroke="black" stroke-width="0.626931" stroke-miterlimit="10"/>
<path d="M1538.96 136.21L1545.54 283.101L1392.36 361.117L1235.88 303.127L1242.5 158.499L1392.4 69.5986L1538.96 136.21Z" stroke="black" stroke-width="0.626931" stroke-miterlimit="10"/>
<path d="M1520.23 145.954L1530.76 291.651L1376.39 366.255L1218.88 311.651L1229.74 167.617L1376.71 76.5177L1520.23 145.954Z" stroke="black" stroke-width="0.626931" stroke-miterlimit="10"/>
<path d="M1501.49 155.697L1516 300.205L1360.42 371.392L1201.89 320.179L1216.98 176.735L1361.01 83.4386L1501.49 155.697Z" stroke="black" stroke-width="0.626931" stroke-miterlimit="10"/>
<path d="M1482.77 165.441L1501.22 308.756L1344.45 376.531L1184.9 328.705L1204.22 185.849L1345.32 90.3644L1482.77 165.441Z" stroke="black" stroke-width="0.626931" stroke-miterlimit="10"/>
<path d="M1464.03 175.185L1486.44 317.312L1328.49 381.668L1167.9 337.23L1191.46 194.967L1329.62 97.2858L1464.03 175.185Z" stroke="black" stroke-width="0.626931" stroke-miterlimit="10"/>
<path d="M1445.3 184.927L1471.67 325.86L1312.52 386.809L1150.9 345.753L1178.69 204.085L1313.93 104.204L1445.3 184.927Z" stroke="black" stroke-width="0.626931" stroke-miterlimit="10"/>
<path d="M1426.56 194.671L1456.9 334.41L1296.56 391.946L1133.91 354.276L1165.93 213.199L1298.24 111.125L1426.56 194.671Z" stroke="black" stroke-width="0.626931" stroke-miterlimit="10"/>
<path d="M1406.07 204.805L1440.37 343.354L1278.83 397.473L1115.15 363.191L1151.41 222.707L1280.79 118.44L1406.07 204.805Z" stroke="black" stroke-width="0.626931" stroke-miterlimit="10"/>
<path d="M1385.32 214.994L1423.58 352.349L1260.85 403.057L1096.14 372.161L1136.63 232.265L1263.08 125.805L1385.32 214.994Z" stroke="black" stroke-width="0.626931" stroke-miterlimit="10"/>
<path d="M1364.58 225.183L1406.79 361.35L1242.87 408.638L1077.13 381.131L1121.86 241.828L1245.37 133.171L1364.58 225.183Z" stroke="black" stroke-width="0.626931" stroke-miterlimit="10"/>
<path d="M1343.83 235.371L1390.01 370.345L1224.89 414.225L1058.13 390.099L1107.07 251.387L1227.66 140.541L1343.83 235.371Z" stroke="black" stroke-width="0.626931" stroke-miterlimit="10"/>
<path d="M1323.08 245.561L1373.23 379.344L1206.91 419.809L1039.12 399.069L1092.3 260.951L1209.95 147.908L1323.08 245.561Z" stroke="black" stroke-width="0.626931" stroke-miterlimit="10"/>
<path d="M1302.34 255.75L1356.44 388.34L1188.93 425.392L1020.11 408.044L1077.53 270.515L1192.25 155.273L1302.34 255.75Z" stroke="black" stroke-width="0.626931" stroke-miterlimit="10"/>
<path d="M1281.21 264.209L1339.27 395.605L1170.57 429.245L1000.72 415.279L1062.36 278.344L1174.16 160.909L1281.21 264.209Z" stroke="black" stroke-width="0.626931" stroke-miterlimit="10"/>
<path d="M1260.08 272.645L1322.09 402.848L1152.2 433.075L981.322 422.496L1047.2 286.15L1156.06 166.522L1260.08 272.645Z" stroke="black" stroke-width="0.626931" stroke-miterlimit="10"/>
<path d="M1238.94 281.076L1304.92 410.089L1133.83 436.905L961.925 429.713L1032.04 293.96L1137.97 172.134L1238.94 281.076Z" stroke="black" stroke-width="0.626931" stroke-miterlimit="10"/>
<path d="M1217.81 289.514L1287.75 417.338L1115.47 440.736L942.534 436.93L1016.87 301.769L1119.87 177.749L1217.81 289.514Z" stroke="black" stroke-width="0.626931" stroke-miterlimit="10"/>
<path d="M1196.67 297.949L1270.57 424.58L1097.1 444.565L923.137 444.146L1001.71 309.578L1101.77 183.366L1196.67 297.949Z" stroke="black" stroke-width="0.626931" stroke-miterlimit="10"/>
<path d="M1175.53 306.384L1253.39 431.822L1078.72 448.394L903.733 451.362L986.541 317.383L1083.68 188.977L1175.53 306.384Z" stroke="black" stroke-width="0.626931" stroke-miterlimit="10"/>
<path d="M1154.4 314.819L1236.22 439.067L1060.36 452.222L884.338 458.577L971.374 325.188L1065.58 194.588L1154.4 314.819Z" stroke="black" stroke-width="0.626931" stroke-miterlimit="10"/>
<path d="M1133.26 323.257L1219.05 446.31L1041.99 456.053L864.941 465.795L956.213 332.999L1047.48 200.203L1133.26 323.257Z" stroke="black" stroke-width="0.626931" stroke-miterlimit="10"/>
<path d="M1116.96 322.69L1197.96 446.132L1021.28 458.48L846.572 464.587L934.917 330.948L1028.63 201.406L1116.96 322.69Z" stroke="black" stroke-width="0.626931" stroke-miterlimit="10"/>
<path d="M1100.65 322.127L1176.88 445.95L1000.58 460.908L828.202 463.38L913.621 328.9L1009.77 202.605L1100.65 322.127Z" stroke="black" stroke-width="0.626931" stroke-miterlimit="10"/>
<path d="M1084.34 321.563L1155.79 445.772L979.873 463.336L809.825 462.169L892.319 326.856L990.917 203.809L1084.34 321.563Z" stroke="black" stroke-width="0.626931" stroke-miterlimit="10"/>
<path d="M1068.04 320.997L1134.71 445.594L959.164 465.764L791.455 460.961L871.023 324.806L972.062 205.013L1068.04 320.997Z" stroke="black" stroke-width="0.626931" stroke-miterlimit="10"/>
<path d="M1051.73 320.432L1113.63 445.411L938.456 468.191L773.085 459.753L849.727 322.756L953.205 206.21L1051.73 320.432Z" stroke="black" stroke-width="0.626931" stroke-miterlimit="10"/>
<path d="M1035.43 319.866L1092.55 445.233L917.748 470.62L754.71 458.547L828.431 320.706L934.35 207.414L1035.43 319.866Z" stroke="black" stroke-width="0.626931" stroke-miterlimit="10"/>
<path d="M1019.12 319.302L1071.46 445.056L897.04 473.048L736.34 457.339L807.129 318.658L915.494 208.613L1019.12 319.302Z" stroke="black" stroke-width="0.626931" stroke-miterlimit="10"/>
<path d="M1002.82 318.738L1050.38 444.873L876.332 475.476L717.964 456.133L785.832 316.608L896.638 209.816L1002.82 318.738Z" stroke="black" stroke-width="0.626931" stroke-miterlimit="10"/>
<path d="M986.514 318.172L1029.29 444.696L855.624 477.904L699.595 454.925L764.536 314.558L877.788 211.019L986.514 318.172Z" stroke="black" stroke-width="0.626931" stroke-miterlimit="10"/>
<path d="M970.206 317.608L1008.21 444.517L834.922 480.331L681.225 453.712L743.242 312.513L858.933 212.217L970.206 317.608Z" stroke="black" stroke-width="0.626931" stroke-miterlimit="10"/>
<path d="M953.882 316.942L987.102 444.235L814.19 482.654L662.826 452.406L721.916 310.359L840.053 213.315L953.882 316.942Z" stroke="black" stroke-width="0.626931" stroke-miterlimit="10"/>
<path d="M937.289 315.093L965.738 442.772L793.198 483.797L644.173 449.914L700.336 307.025L820.914 213.234L937.289 315.093Z" stroke="black" stroke-width="0.626931" stroke-miterlimit="10"/>
<path d="M918.497 313.731L942.167 441.797L770.007 485.432L623.312 447.909L676.55 304.184L799.568 213.641L918.497 313.731Z" stroke="black" stroke-width="0.626931" stroke-miterlimit="10"/>
<path d="M899.588 312.399L918.485 440.847L746.696 487.088L602.34 445.93L652.652 301.362L778.11 214.073L899.588 312.399Z" stroke="black" stroke-width="0.626931" stroke-miterlimit="10"/>
<path d="M880.683 311.061L894.796 439.897L723.386 488.744L581.368 443.95L628.754 298.545L756.658 214.503L880.683 311.061Z" stroke="black" stroke-width="0.626931" stroke-miterlimit="10"/>
<path d="M861.773 309.729L871.113 438.946L700.076 490.405L560.397 441.975L604.855 295.723L735.2 214.934L861.773 309.729Z" stroke="black" stroke-width="0.626931" stroke-miterlimit="10"/>
<path d="M842.869 308.392L847.425 437.998L676.765 492.061L539.419 439.997L580.957 292.906L713.742 215.366L842.869 308.392Z" stroke="black" stroke-width="0.626931" stroke-miterlimit="10"/>
<path d="M823.958 307.057L823.742 437.048L653.461 493.717L518.447 438.018L557.053 290.087L692.285 215.799L823.958 307.057Z" stroke="black" stroke-width="0.626931" stroke-miterlimit="10"/>
<path d="M805.055 305.722L800.06 436.096L630.152 495.376L497.475 436.037L533.156 287.268L670.827 216.228L805.055 305.722Z" stroke="black" stroke-width="0.626931" stroke-miterlimit="10"/>
<path d="M786.144 304.387L776.371 435.148L606.841 497.033L476.504 434.063L509.257 284.447L649.369 216.661L786.144 304.387Z" stroke="black" stroke-width="0.626931" stroke-miterlimit="10"/>
<path d="M767.234 303.05L752.688 434.197L583.531 498.689L455.526 432.084L485.36 281.63L627.912 217.092L767.234 303.05Z" stroke="black" stroke-width="0.626931" stroke-miterlimit="10"/>
<path d="M748.331 301.718L729 433.249L560.221 500.35L434.554 430.105L461.461 278.809L606.454 217.524L748.331 301.718Z" stroke="black" stroke-width="0.626931" stroke-miterlimit="10"/>
<path d="M729.421 300.386L705.318 432.303L536.917 502.009L413.583 428.13L437.559 275.997L585.002 217.959L729.421 300.386Z" stroke="black" stroke-width="0.626931" stroke-miterlimit="10"/>
<path d="M710.517 299.047L681.635 431.352L513.607 503.665L392.605 426.151L413.66 273.175L563.545 218.39L710.517 299.047Z" stroke="black" stroke-width="0.626931" stroke-miterlimit="10"/>
<path d="M691.607 297.717L657.947 430.403L490.298 505.327L371.634 424.177L389.763 270.359L542.087 218.822L691.607 297.717Z" stroke="black" stroke-width="0.626931" stroke-miterlimit="10"/>
<path d="M672.702 296.379L634.264 429.453L466.987 506.983L350.661 422.197L365.864 267.537L520.629 219.254L672.702 296.379Z" stroke="black" stroke-width="0.626931" stroke-miterlimit="10"/>
<path d="M653.793 295.048L610.575 428.504L443.676 508.639L329.689 420.218L341.966 264.721L499.171 219.686L653.793 295.048Z" stroke="black" stroke-width="0.626931" stroke-miterlimit="10"/>
<path d="M634.883 293.71L586.893 427.552L420.373 510.297L308.711 418.238L318.068 261.898L477.712 220.111L634.883 293.71Z" stroke="black" stroke-width="0.626931" stroke-miterlimit="10"/>
<path d="M615.978 292.374L563.21 426.604L397.062 511.955L287.739 416.26L294.164 259.084L456.254 220.544L615.978 292.374Z" stroke="black" stroke-width="0.626931" stroke-miterlimit="10"/>
<path d="M597.181 291.55L539.634 426.161L373.864 514.118L266.88 414.792L270.378 256.769L434.915 221.481L597.181 291.55Z" stroke="black" stroke-width="0.626931" stroke-miterlimit="10"/>
<path d="M578.675 292.018L516.351 427.022L350.953 517.585L246.307 414.619L246.879 255.758L413.857 223.723L578.675 292.018Z" stroke="black" stroke-width="0.626931" stroke-miterlimit="10"/>
<path d="M560.165 292.491L493.062 427.877L328.043 521.05L225.729 414.444L223.381 254.745L392.798 225.959L560.165 292.491Z" stroke="black" stroke-width="0.626931" stroke-miterlimit="10"/>
<path d="M541.66 292.965L469.778 428.733L305.137 524.511L205.156 414.276L199.882 253.735L371.739 228.198L541.66 292.965Z" stroke="black" stroke-width="0.626931" stroke-miterlimit="10"/>
<path d="M523.149 293.434L446.494 429.588L282.227 527.978L184.583 414.102L176.376 252.72L350.68 230.435L523.149 293.434Z" stroke="black" stroke-width="0.626931" stroke-miterlimit="10"/>
<path d="M504.644 293.906L423.205 430.449L259.315 531.439L164.005 413.934L152.878 251.708L329.622 232.676L504.644 293.906Z" stroke="black" stroke-width="0.626931" stroke-miterlimit="10"/>
<path d="M486.132 294.375L399.921 431.304L236.405 534.905L143.431 413.76L129.379 250.696L308.563 234.913L486.132 294.375Z" stroke="black" stroke-width="0.626931" stroke-miterlimit="10"/>
<path d="M467.628 294.848L376.638 432.16L213.493 538.367L122.86 413.591L105.881 249.685L287.505 237.151L467.628 294.848Z" stroke="black" stroke-width="0.626931" stroke-miterlimit="10"/>
<path d="M449.117 295.324L353.349 433.022L190.588 541.834L102.286 413.418L82.3804 248.671L266.451 239.388L449.117 295.324Z" stroke="black" stroke-width="0.626931" stroke-miterlimit="10"/>
<path d="M430.606 295.792L330.065 433.877L167.676 545.295L81.7077 413.249L58.8819 247.658L245.392 241.624L430.606 295.792Z" stroke="black" stroke-width="0.626931" stroke-miterlimit="10"/>
<path d="M412.102 296.266L306.776 434.734L144.767 548.762L61.1352 413.076L35.378 246.649L224.334 243.862L412.102 296.266Z" stroke="black" stroke-width="0.626931" stroke-miterlimit="10"/>
<path d="M393.589 296.735L283.491 435.589L121.855 552.228L40.5611 412.902L11.8774 245.633L203.275 246.104L393.589 296.735Z" stroke="black" stroke-width="0.626931" stroke-miterlimit="10"/>
<path d="M375.085 297.207L260.209 436.449L98.9441 555.69L19.9896 412.733L-11.6205 244.621L182.217 248.341L375.085 297.207Z" stroke="black" stroke-width="0.626931" stroke-miterlimit="10"/>
<path d="M356.575 297.682L236.92 437.305L76.0396 559.155L-0.589342 412.56L-35.119 243.61L161.158 250.578L356.575 297.682Z" stroke="black" stroke-width="0.626931" stroke-miterlimit="10"/>
<path d="M338.069 298.15L213.636 438.161L53.1276 562.617L-21.1619 412.391L-58.6191 242.594L140.099 252.815L338.069 298.15Z" stroke="black" stroke-width="0.626931" stroke-miterlimit="10"/>
<path d="M320.842 298.341L191.629 438.734L31.5004 565.8L-40.4518 411.934L-80.8402 241.301L120.323 254.769L320.842 298.341Z" stroke="black" stroke-width="0.626931" stroke-miterlimit="10"/>
<path d="M303.636 298.521L169.652 439.3L9.89474 568.973L-59.7238 411.477L-103.033 240.001L100.571 256.722L303.636 298.521Z" stroke="black" stroke-width="0.626931" stroke-miterlimit="10"/>
<path d="M286.439 298.706L147.67 439.874L-11.7089 572.152L-78.99 411.015L-125.225 238.702L80.8193 258.672L286.439 298.706Z" stroke="black" stroke-width="0.626931" stroke-miterlimit="10"/>
<path d="M269.234 298.891L125.692 440.44L-33.3144 575.324L-98.2561 410.557L-147.424 237.398L61.0665 260.62L269.234 298.891Z" stroke="black" stroke-width="0.626931" stroke-miterlimit="10"/>
<path d="M252.029 299.071L103.709 441.007L-54.9183 578.502L-117.529 410.095L-169.616 236.097L41.3142 262.568L252.029 299.071Z" stroke="black" stroke-width="0.626931" stroke-miterlimit="10"/>
<path d="M234.831 299.256L81.7332 441.579L-76.5221 581.68L-136.795 409.632L-191.808 234.798L21.5619 264.517L234.831 299.256Z" stroke="black" stroke-width="0.626931" stroke-miterlimit="10"/>
<path d="M1.81073 266.469L217.627 299.441L59.7501 442.147L-98.127 584.852L-156.061 409.174L-214 233.497L1.81073 266.469Z" stroke="black" stroke-width="0.626931" stroke-miterlimit="10"/>
</g>
<defs>
<filter id="filter0_f_180_1387" x="-714" y="-591" width="2529" height="2529" filterUnits="userSpaceOnUse" color-interpolation-filters="sRGB">
<feFlood flood-opacity="0" result="BackgroundImageFix"/>
<feBlend mode="normal" in="SourceGraphic" in2="BackgroundImageFix" result="shape"/>
<feGaussianBlur stdDeviation="250" result="effect1_foregroundBlur_180_1387"/>
</filter>
</defs>
</svg>
